<svg class="thumb" width="1000" height="1000" viewBox="18 143 564 313" xmlns="http://www.w3.org/2000/svg" xmlns:inkscape="http://www.inkscape.org/namespaces/inkscape" xmlns:sodipodi="http://sodipodi.sourceforge.net/DTD/sodipodi-0.dtd" xmlns:xlink="http://www.w3.org/1999/xlink" xmlns:ns1="http://www.inkscape.org/namespaces/inkscape" xmlns:sketch="http://www.bohemiancoding.com/sketch/ns">
  <defs></defs>
  <g transform="matrix(1.3191,0,0,1.3191,-33.7047,127.7295)">
    <g transform="matrix(4.1063,0,0,4.1063,269.4688,113.4688)">
      <svg width="10" height="10" viewBox="54.446,51.853,10,10">
        <defs>
          <linearGradient x1="0" y1="0.5" x2="1" y2="0.5">
            <stop offset="0%" stop-color="#8dcaff"></stop>
            <stop offset="100%" stop-color="#8dcaff"></stop>
          </linearGradient>
        </defs>
        <g></g>
        <g></g>
        <g></g>
        <g></g>
        <g></g>
        <g></g>
      </svg>
    </g>
    <g transform="matrix(4.1063,0,0,4.1063,158.4688,15.4688)">
      <svg width="10" height="10" viewBox="27.320999999999998,27.463,10,10">
        <defs>
          <linearGradient x1="0" y1="0.5" x2="1" y2="0.5">
            <stop offset="0%" stop-color="#8dcaff"></stop>
            <stop offset="100%" stop-color="#8dcaff"></stop>
          </linearGradient>
        </defs>
        <g></g>
        <g></g>
        <g></g>
        <g></g>
        <g></g>
        <g></g>
      </svg>
    </g>
    <g transform="matrix(4.1063,0,0,4.1063,256.4688,130.4688)">
      <svg width="10" height="10" viewBox="51.341,55.469,10,10">
        <defs>
          <linearGradient x1="0" y1="0.5" x2="1" y2="0.5">
            <stop offset="0%" stop-color="#8dcaff"></stop>
            <stop offset="100%" stop-color="#8dcaff"></stop>
          </linearGradient>
        </defs>
        <g></g>
        <g></g>
        <g></g>
        <g></g>
        <g></g>
        <g></g>
      </svg>
    </g>
    <g transform="matrix(4.1063,0,0,4.1063,179.4406,0.6625)">
      <svg width="67.46799999999999" height="44.81700000000001" viewBox="32.186,23.642,67.46799999999999,44.81700000000001">
        <defs>
          <linearGradient x1="0" y1="0.5" x2="1" y2="0.5" id="linearGradientSk7bqn1aqm">
            <stop offset="0%" stop-color="#8dcaff"></stop>
            <stop offset="100%" stop-color="#8dcaff"></stop>
          </linearGradient>
        </defs>
        <g></g>
        <g></g>
        <g></g>
        <g></g>
        <g></g>
        <g>
          <polygon points="70.717,48.864 37.186,63.459 51.035,62.554 75.11,55.306 94.654,28.642 " stroke="none" fill="url('#linearGradientSk7bqn1aqm')" style=""></polygon>
        </g>
      </svg>
    </g>
    <g transform="matrix(4.1063,0,0,4.1063,92.5562,109.0437)">
      <svg width="46.769000000000005" height="18.315999999999995" viewBox="11.535,50.337,46.769000000000005,18.315999999999995">
        <defs>
          <linearGradient x1="0" y1="0.5" x2="1" y2="0.5" id="linearGradientSk7bqn1aqs">
            <stop offset="0%" stop-color="#8dcaff"></stop>
            <stop offset="100%" stop-color="#8dcaff"></stop>
          </linearGradient>
        </defs>
        <g></g>
        <g></g>
        <g></g>
        <g></g>
        <g></g>
        <g>
          <polygon points="53.304,55.337 22.236,59.124 20.418,60.386 16.535,61.647 17.312,63.653 17.836,62.748 19.972,62.748   35.044,63.378 " stroke="none" fill="url('#linearGradientSk7bqn1aqs')" style=""></polygon>
        </g>
      </svg>
    </g>
    <g transform="matrix(4.1063,0,0,4.1063,47.6625,11.0875)">
      <svg width="44.967" height="36.43" viewBox="0.3460000000000001,26.359,44.967,36.43">
        <defs>
          <linearGradient x1="0" y1="0.5" x2="1" y2="0.5" id="linearGradientSk7bqn1aqy">
            <stop offset="0%" stop-color="#8dcaff"></stop>
            <stop offset="100%" stop-color="#8dcaff"></stop>
          </linearGradient>
        </defs>
        <g></g>
        <g></g>
        <g></g>
        <g></g>
        <g></g>
        <g>
          <polygon points="40.313,55.834 24.544,57.789 10.079,46.989 5.346,31.359 15.474,44.563 " stroke="none" fill="url('#linearGradientSk7bqn1aqy')" style=""></polygon>
        </g>
      </svg>
    </g>
    <g transform="matrix(4.1063,0,0,4.1063,128.1844,144.0969)">
      <svg width="53.926" height="17.729000000000006" viewBox="19.593,58.629,53.926,17.729000000000006">
        <defs>
          <linearGradient x1="0" y1="0.5" x2="1" y2="0.5" id="linearGradientSk7bqn1aq14">
            <stop offset="0%" stop-color="#e4c79f"></stop>
            <stop offset="100%" stop-color="#e4c79f"></stop>
          </linearGradient>
        </defs>
        <g></g>
        <g></g>
        <g></g>
        <g></g>
        <g></g>
        <g>
          <polygon points="51.386,63.629 36.889,64.438 34.883,64.414 24.593,63.841 39.177,67.423 48.586,66.72 46.451,68.637 49.94,71.023   50.633,66.574 51.918,71.358 55.798,71.05 52.211,66.282 58.232,70.481 62.221,69.394 54.006,65.7 63.975,68.763 68.519,66.355 " stroke="none" fill="url('#linearGradientSk7bqn1aq14')" style=""></polygon>
        </g>
      </svg>
    </g>
    <g transform="matrix(2.0176,0.3922,-0.3922,2.0176,274.0373,80.4737)">
      <svg width="67.46799999999999" height="44.81700000000001" viewBox="32.186,23.642,67.46799999999999,44.81700000000001">
        <defs>
          <linearGradient x1="0" y1="0.5" x2="1" y2="0.5" id="linearGradientSk7bqn1aq1a">
            <stop offset="0%" stop-color="#8dcaff"></stop>
            <stop offset="100%" stop-color="#8dcaff"></stop>
          </linearGradient>
        </defs>
        <g></g>
        <g></g>
        <g></g>
        <g></g>
        <g></g>
        <g>
          <polygon points="70.717,48.864 37.186,63.459 51.035,62.554 75.11,55.306 94.654,28.642 " stroke="none" fill="url('#linearGradientSk7bqn1aq1a')" style=""></polygon>
        </g>
      </svg>
    </g>
    <g transform="matrix(0.4216,0,0,0.3987,103.7349,199.3747)">
      <svg width="701.5000000000001" height="194" style="overflow: visible;">
        <defs>
          <linearGradient x1="0" y1="0.5" x2="1" y2="0.5" id="linearGradientSk7bqn1aq1i">
            <stop offset="0%" stop-color="#ffffff"></stop>
            <stop offset="100%" stop-color="#ffffff"></stop>
          </linearGradient>
        </defs>
        <g transform="matrix(1,0,0,1,0,100.5)">
          <path d="M-107.10000000000002 0L-107.10000000000002 0L-131.50000000000003 0L-131.40000000000003-1L-130.20000000000002-1Q-127.60000000000002-1 -125.75000000000003-2.8Q-123.90000000000003-4.6 -123.80000000000003-7.2L-123.80000000000003-7.2L-123.80000000000003-62.8Q-123.80000000000003-65.4 -125.70000000000003-67.2Q-127.60000000000002-69 -130.20000000000002-69L-130.20000000000002-69L-131.40000000000003-69L-131.50000000000003-70L-111.60000000000002-70Q-101.30000000000003-70 -95.60000000000002-65.45Q-89.90000000000003-60.9 -89.90000000000003-53.3L-89.90000000000003-53.3Q-89.90000000000003-47.3 -93.10000000000002-43.35Q-96.30000000000003-39.4 -100.90000000000003-38.1L-100.90000000000003-38.1Q-93.00000000000003-36.9 -88.40000000000003-31.6Q-83.80000000000003-26.3 -83.80000000000003-18.25Q-83.80000000000003-10.2 -89.95000000000003-5.1Q-96.10000000000002 0 -107.10000000000002 0ZM-117.30000000000003-66.8L-117.30000000000003-3.6L-107.50000000000003-3.6Q-107.40000000000003-3.6 -107.30000000000003-3.6L-107.30000000000003-3.6Q-99.70000000000003-3.6 -95.50000000000003-7.75Q-91.30000000000003-11.9 -91.30000000000003-19.5L-91.30000000000003-19.5Q-91.30000000000003-23.8 -92.75000000000003-27.05Q-94.20000000000003-30.3 -96.40000000000003-32.2L-96.40000000000003-32.2Q-102.20000000000003-37 -113.80000000000003-37L-113.80000000000003-37Q-113.80000000000003-37 -113.90000000000003-37L-113.90000000000003-37L-113.90000000000003-37.9Q-113.80000000000003-37.9 -112.95000000000003-37.9Q-112.10000000000002-37.9 -110.50000000000003-38.1Q-108.90000000000003-38.3 -106.90000000000003-38.8Q-104.90000000000003-39.3 -103.30000000000003-40.4Q-101.70000000000003-41.5 -100.30000000000003-43L-100.30000000000003-43Q-97.40000000000003-46.3 -97.40000000000003-52.85Q-97.40000000000003-59.4 -101.15000000000003-63.1Q-104.90000000000003-66.8 -112.00000000000003-66.8L-112.00000000000003-66.8L-117.30000000000003-66.8ZM-49.400000000000006-1L-48.00000000000001-1Q-45.300000000000004-1 -43.300000000000004-2.6Q-41.300000000000004-4.2 -41.300000000000004-6.4L-41.300000000000004-6.4L-41.300000000000004-53.6Q-41.300000000000004-55.8 -43.300000000000004-57.4Q-45.300000000000004-59 -48.10000000000001-59L-48.10000000000001-59L-49.400000000000006-59L-49.400000000000006-60L-26.800000000000004-60L-26.800000000000004-59L-28.100000000000005-59Q-30.800000000000004-59 -32.75000000000001-57.5Q-34.7-56 -34.900000000000006-53.8L-34.900000000000006-53.8L-34.900000000000006-6.3Q-34.800000000000004-4.1 -32.800000000000004-2.55Q-30.800000000000004-1 -28.100000000000005-1L-28.100000000000005-1L-26.800000000000004-1L-26.700000000000006 0L-49.400000000000006 0L-49.400000000000006-1ZM 27.89999999999996-56.9L 27.89999999999996-56.9L 22.59999999999996-56.9L 22.59999999999996-6.4Q 22.69999999999996-3.3  25.39999999999996-1.7L 25.39999999999996-1.7Q 26.69999999999996-1  28.29999999999996-1L 28.29999999999996-1L 29.59999999999996-1L 29.69999999999996 0L 9.19999999999996 0L 9.19999999999996-1L 10.59999999999996-1Q 12.89999999999996-1  14.54999999999996-2.55Q 16.19999999999996-4.1  16.19999999999996-6.3L 16.19999999999996-6.3L 16.19999999999996-53.8Q 16.19999999999996-56  14.54999999999996-57.5Q 12.89999999999996-59  10.59999999999996-59L 10.59999999999996-59L 9.19999999999996-59L 9.19999999999996-60L 34.29999999999996-60Q 43.69999999999996-60  49.14999999999996-55.7Q 54.59999999999996-51.4  54.59999999999996-44.4Q 54.59999999999996-37.4  50.19999999999996-32.7Q 45.79999999999996-28  38.99999999999996-27.3L 38.99999999999996-27.3Q 42.19999999999996-25.9  46.69999999999996-19.5L 46.69999999999996-19.5Q 46.59999999999996-19.5  50.14999999999996-15.1Q 53.69999999999996-10.7  55.84999999999996-8.25Q 57.99999999999996-5.8  59.39999999999996-4.5L 59.39999999999996-4.5Q 63.09999999999996-1  67.89999999999996-1L 67.89999999999996-1L 67.89999999999996 0L 64.79999999999995 0Q 56.89999999999996 0  52.39999999999996-3.1L 52.39999999999996-3.1Q 48.99999999999996-5.4  46.19999999999996-8.8L 46.19999999999996-8.8Q 45.59999999999996-9.6  41.14999999999996-15.85Q 36.69999999999996-22.1  36.39999999999996-22.5L 36.39999999999996-22.5Q 30.99999999999996-29.2  26.29999999999996-29.2L 26.29999999999996-29.2L 26.29999999999996-30.2Q 37.99999999999996-30.2  40.39999999999996-31.4L 40.39999999999996-31.4Q 43.69999999999996-33.1  44.89999999999996-35L 44.89999999999996-35Q 47.39999999999996-39  47.39999999999996-43.8L 47.39999999999996-43.8Q 47.39999999999996-49.9  43.79999999999996-53.2Q 40.19999999999996-56.5  34.09999999999996-56.8L 34.09999999999996-56.8Q 31.39999999999996-56.9  27.89999999999996-56.9ZM 162.39999999999992-30L 162.39999999999992-30Q 162.39999999999992-16.1  153.74999999999991-8.05Q 145.0999999999999 0  130.29999999999993 0L 130.29999999999993 0L 96.89999999999992 0L 96.89999999999992-1L 98.19999999999992-1Q 100.59999999999992-1  102.19999999999992-2.6Q 103.79999999999993-4.2  103.89999999999992-6.4L 103.89999999999992-6.4L 103.89999999999992-53.6Q 103.79999999999993-56  102.14999999999992-57.5Q 100.49999999999991-59  98.09999999999992-59L 98.09999999999992-59L 96.89999999999992-59L 96.89999999999992-60L 130.29999999999993-60Q 140.0999999999999-60  147.3499999999999-56.4Q 154.5999999999999-52.8  158.49999999999991-46Q 162.39999999999992-39.2  162.39999999999992-30ZM 130.29999999999993-57L 110.39999999999992-57L 110.39999999999992-3L 130.29999999999993-3Q 141.79999999999993-3  148.49999999999991-10.25Q 155.19999999999993-17.5  155.19999999999993-30L 155.19999999999993-30Q 155.19999999999993-42.5  148.49999999999991-49.75Q 141.79999999999993-57  130.29999999999993-57L 130.29999999999993-57ZM 198.19999999999993-3.3L 198.19999999999993-3.3Q 197.89999999999992-4.5  197.89999999999992-8.2Q 197.89999999999992-11.9  199.19999999999993-15.7L 199.19999999999993-15.7L 200.39999999999992-15.7Q 200.29999999999993-14.8  200.29999999999993-13.9L 200.29999999999993-13.9Q 200.29999999999993-8.5  203.8499999999999-5.05Q 207.39999999999992-1.6  213.69999999999993-1.6L 213.69999999999993-1.6Q 220.29999999999993-1.6  223.99999999999991-4.65Q 227.69999999999993-7.7  227.69999999999993-12.55Q 227.69999999999993-17.4  224.0999999999999-20.6L 224.0999999999999-20.6L 204.0999999999999-36Q 199.29999999999993-40.1  199.29999999999993-47L 199.29999999999993-47Q 199.29999999999993-50.9  201.44999999999993-54.2Q 203.5999999999999-57.5  207.44999999999993-59.45Q 211.29999999999993-61.4  216.49999999999991-61.4Q 221.69999999999993-61.4  225.69999999999993-60.5L 225.69999999999993-60.5L 228.99999999999991-60.5L 229.19999999999993-49.6L 228.0999999999999-49.6Q 228.0999999999999-53.8  225.19999999999993-56.1Q 222.29999999999993-58.4  216.89999999999992-58.4Q 211.49999999999991-58.4  207.99999999999991-55.65Q 204.49999999999991-52.9  204.49999999999991-48.55Q 204.49999999999991-44.2  208.39999999999992-41L 208.39999999999992-41L 228.5999999999999-25.4Q 233.19999999999993-21.6  233.19999999999993-14.8Q 233.19999999999993-8  228.04999999999993-3.3Q 222.89999999999992 1.4  215.49999999999991 1.4L 215.49999999999991 1.4Q 210.5999999999999 1.4  205.69999999999993 0.2Q 200.79999999999993-1  198.19999999999993-3.3ZM 269.59999999999985-1L 270.89999999999986-1Q 273.49999999999983-1  275.34999999999985-2.85Q 277.1999999999999-4.7  277.29999999999984-7.3L 277.29999999999984-7.3L 277.29999999999984-63.3Q 276.99999999999983-65.7  275.1999999999999-67.35Q 273.39999999999986-69  270.89999999999986-69L 270.89999999999986-69L 269.6999999999999-69L 269.59999999999985-70L 298.89999999999986-70Q 301.99999999999983-70  305.64999999999986-70.6Q 309.29999999999984-71.2  310.79999999999984-71.8L 310.79999999999984-71.8L 310.79999999999984-59.2L 309.79999999999984-59.2L 309.79999999999984-61Q 309.79999999999984-63.4  308.14999999999986-65.1Q 306.49999999999983-66.8  304.1999999999999-66.9L 304.1999999999999-66.9L 283.79999999999984-66.9L 283.79999999999984-36L 300.6999999999999-36Q 302.6999999999999-36.1  304.09999999999985-37.5Q 305.49999999999983-38.9  305.49999999999983-41L 305.49999999999983-41L 305.49999999999983-42.4L 306.49999999999983-42.4L 306.49999999999983-26.6L 305.49999999999983-26.6L 305.49999999999983-28.1Q 305.49999999999983-30.1  304.14999999999986-31.5Q 302.79999999999984-32.9  300.79999999999984-33L 300.79999999999984-33L 283.79999999999984-33L 283.79999999999984-3.1L 298.09999999999985-3.1Q 305.49999999999983-3.1  309.39999999999986-6.4Q 313.29999999999984-9.7  315.89999999999986-16.2L 315.89999999999986-16.2L 316.89999999999986-16.2L 311.09999999999985 0L 269.59999999999985 0L 269.59999999999985-1ZM 410.79999999999995-60L 410.79999999999995-59L 409.59999999999997-59Q 406.9-59  404.44999999999993-57.55Q 401.99999999999994-56.1  400.4-53.9L 400.4-53.9L 381.19999999999993-24.8L 381.19999999999993-6.4Q 381.19999999999993-4.2  382.9-2.6Q 384.59999999999997-1  386.99999999999994-1L 386.99999999999994-1L 388.19999999999993-1L 388.19999999999993 0L 367.69999999999993 0L 367.69999999999993-1L 368.9-1Q 371.29999999999995-1  372.99999999999994-2.6Q 374.69999999999993-4.2  374.69999999999993-6.4L 374.69999999999993-6.4L 374.69999999999993-24.9L 356.19999999999993-54Q 352.79999999999995-59  346.99999999999994-59L 346.99999999999994-59L 345.79999999999995-59L 345.79999999999995-60L 368.99999999999994-60L 368.99999999999994-59L 367.79999999999995-59Q 365.9-59  365.04999999999995-57.8Q 364.19999999999993-56.6  364.19999999999993-55.75Q 364.19999999999993-54.9  364.4-54.2L 364.4-54.2L 378.99999999999994-28.3L 394.49999999999994-54.1Q 394.79999999999995-54.9  394.79999999999995-55.75Q 394.79999999999995-56.6  393.94999999999993-57.8Q 393.09999999999997-59  391.09999999999997-59L 391.09999999999997-59L 389.9-59L 389.9-60L 410.79999999999995-60ZM 440.8-1L 442.2-1Q 444.6-1  446.25-2.55Q 447.90000000000003-4.1  448-6.3L 448-6.3L 448-53.8Q 448-56  446.3-57.5Q 444.6-59  442.2-59L 442.2-59L 440.8-59L 440.8-60L 470-60Q 474.1-60  477.2-60.6Q 480.3-61.2  481.2-61.6L 481.2-61.6L 481.2-50.2L 480.1-50.3L 480.1-51.8Q 480.1-53.9  478.7-55.4Q 477.3-56.9  475.1-56.9L 475.1-56.9L 454.3-56.9L 454.3-31.5L 471.40000000000003-31.5Q 473.40000000000003-31.5  474.45-32.7Q 475.5-33.9  475.5-35.7L 475.5-35.7L 475.5-37L 476.6-37L 476.6-23L 475.5-23L 475.5-24.3Q 475.5-27.1  473.40000000000003-28.1L 473.40000000000003-28.1Q 472.6-28.4  471.7-28.5L 471.7-28.5L 454.3-28.5L 454.3-3.1L 470-3.1Q 474.6-3.1  477.75-4.7Q 480.90000000000003-6.3  482.55-8.5Q 484.2-10.7  485.90000000000003-14.3L 485.90000000000003-14.3L 486.90000000000003-14.3L 481.40000000000003 0L 440.8 0L 440.8-1ZM 589.9-70L 589.9-69L 589-69Q 585.6-69  582.8-66.3L 582.8-66.3Q 581.1999999999999-64.9  580.3-62.8L 580.3-62.8L 556.1999999999999-8.9Q 552.5-0.8  552.5 1.4L 552.5 1.4L 551.6 1.4L 523.5-62.7Q 522.1-65.9  519.65-67.45Q 517.1999999999999-69 514.6999999999999-69L 514.6999999999999-69L 513.9-69L 513.9-70L 536.4-70L 536.4-69L 535.5-69Q 532.5-69  531.5-66.2L 531.5-66.2Q 531.3-65.6  531.3-64.8Q 531.3-64  531.8-62.8L 531.8-62.8L 552.6999999999999-10.4L 574.5-62.8Q 574.9-64  574.9-65.15Q 574.9-66.3  573.85-67.65Q 572.8-69  570.6999999999999-69L 570.6999999999999-69L 569.8-69L 569.8-70L 589.9-70ZM 616.4000000000001-1L 617.8000000000001-1Q 620.5000000000001-1  622.5000000000001-2.6Q 624.5000000000001-4.2  624.5000000000001-6.4L 624.5000000000001-6.4L 624.5000000000001-53.6Q 624.5000000000001-55.8  622.5000000000001-57.4Q 620.5000000000001-59  617.7-59L 617.7-59L 616.4000000000001-59L 616.4000000000001-60L 639.0000000000001-60L 639.0000000000001-59L 637.7-59Q 635.0000000000001-59  633.0500000000001-57.5Q 631.1000000000001-56  630.9000000000001-53.8L 630.9000000000001-53.8L 630.9000000000001-6.3Q 631.0000000000001-4.1  633.0000000000001-2.55Q 635.0000000000001-1  637.7-1L 637.7-1L 639.0000000000001-1L 639.1000000000001 0L 616.4000000000001 0L 616.4000000000001-1ZM 675-1L 676.4-1Q 678.8-1  680.45-2.55Q 682.1-4.1  682.2-6.3L 682.2-6.3L 682.2-53.8Q 682.2-56  680.5-57.5Q 678.8-59  676.4-59L 676.4-59L 675-59L 675-60L 704.2-60Q 708.3-60  711.4-60.6Q 714.5-61.2  715.4-61.6L 715.4-61.6L 715.4-50.2L 714.3-50.3L 714.3-51.8Q 714.3-53.9  712.9-55.4Q 711.5-56.9  709.3-56.9L 709.3-56.9L 688.5-56.9L 688.5-31.5L 705.6-31.5Q 707.6-31.5  708.65-32.7Q 709.7-33.9  709.7-35.7L 709.7-35.7L 709.7-37L 710.8-37L 710.8-23L 709.7-23L 709.7-24.3Q 709.7-27.1  707.6-28.1L 707.6-28.1Q 706.8-28.4  705.9-28.5L 705.9-28.5L 688.5-28.5L 688.5-3.1L 704.2-3.1Q 708.8-3.1  711.95-4.7Q 715.1-6.3  716.75-8.5Q 718.4-10.7  720.1-14.3L 720.1-14.3L 721.1-14.3L 715.6 0L 675 0L 675-1ZM 839.4999999999998-60L 839.4999999999998-59L 838.7999999999998-59Q 832.7999999999998-59  830.5999999999998-53.1L 830.5999999999998-53.1L 816.0999999999998-9.9Q 813.8999999999997-3.6  813.7999999999998 1.2L 813.7999999999998 1.2L 812.7999999999998 1.2L 794.1999999999998-46.4L 781.1999999999998-9.9Q 779.1999999999998-3.7  778.9999999999998 1.2L 778.9999999999998 1.2L 778.0999999999998 1.2L 757.0999999999998-53.5Q 754.7999999999998-59  749.0999999999998-59L 749.0999999999998-59L 748.2999999999998-59L 748.2999999999998-60L 768.8999999999997-60L 768.8999999999997-59L 768.0999999999998-59Q 766.2999999999998-59  765.3499999999998-57.9Q 764.3999999999997-56.8  764.3999999999997-55.7Q 764.3999999999997-54.6  764.6999999999998-53.6L 764.6999999999998-53.6L 777.9999999999998-12.9L 794.8999999999997-61.6L 795.8999999999997-61.5L 813.7999999999998-15.9L 824.9999999999998-53Q 825.4999999999998-54.4  825.4999999999998-55.5Q 825.4999999999998-56.6  824.6999999999998-57.8Q 823.8999999999997-59  821.9999999999998-59L 821.9999999999998-59L 821.1999999999998-59L 821.1999999999998-60L 839.4999999999998-60Z" data-textpath="BirdsEyeView" data-text-anchor="middle" data-font-size="100" data-letterspacing="25" data-side="left" data-offset="0.5" data-dx="0" data-dy="0" data-xmlspace="preserve" data-href="" data-font="Cinzel" data-font-src="/Content/clientfonts/cinzel.woff" data-font-scale="contain" transform="translate(0,0)" data-x="0" data-y="0" fill="url('#linearGradientSk7bqn1aq1i')"></path>
        </g>
      </svg>
    </g>
  </g>
</svg>